<svg width="443" height="240" viewBox="0 0 443 240" fill="none" xmlns="http://www.w3.org/2000/svg">
<path d="M64.5 173V171.03C119.393 199.91 167.111 216.831 216.34 220.238C265.835 223.663 316.158 213.382 376.11 188.989L375.518 197.479L375.346 199.95L376.68 202.038L388.18 220.038L393.204 227.902L399.803 221.303L417.803 203.303L419.75 201.356L419.975 198.612L433.475 33.6116L434.139 25.5H426H394.5H387.505L387.018 32.4785L377.275 172.276C315.566 198.179 265.686 208.617 217.375 205.273C169.018 201.927 121.48 184.723 64.5 154.037V15V7.5H57H32H25.2211L24.5382 14.2444L8.53816 172.244L8.27501 174.843L9.68296 177.043L25.683 202.043L30.7096 209.897L37.3033 203.303L62.3033 178.303L64.5 176.107V173Z" stroke="black" stroke-width="15"/>
<path d="M65 129C197.777 186.277 374.161 152.351 382 148.827" stroke="black" stroke-width="15"/>
<path d="M96.5 142.5L90 175.5" stroke="black" stroke-width="23"/>
<path d="M114 186.5L125.5 150" stroke="black" stroke-width="23"/>
<path d="M149.5 155.5L144 197" stroke="black" stroke-width="23"/>
<path d="M177.5 161.5L173 201.5" stroke="black" stroke-width="23"/>
<path d="M202.5 208L206.5 166.5" stroke="black" stroke-width="23"/>
<path d="M235.5 164V211" stroke="black" stroke-width="23"/>
<path d="M264.5 163L267.5 208" stroke="black" stroke-width="23"/>
<path d="M291 162.5L297 207" stroke="black" stroke-width="23"/>
<path d="M322 160.5L331.5 196" stroke="black" stroke-width="23"/>
<path d="M357 187L350.5 158" stroke="black" stroke-width="23"/>
<path d="M383.5 105.5C267.5 125.5 188.5 115.5 66 85.9998M383.5 117C362.073 120.694 341.909 123.194 322.5 124.629M66 92.4998C79.6712 95.792 92.8005 98.9036 105.5 101.806M92.5 174L105.5 101.806M105.5 101.806C132.03 107.87 156.684 113.021 180.482 117M180.482 117L171.5 211.5H264V125.803M180.482 117C208.965 121.762 236.221 124.845 264 125.803M264 125.803C283.065 126.46 302.377 126.117 322.5 124.629M322.5 124.629L330.5 192.5" stroke="black" stroke-width="7"/>
<path d="M228 114.5L208 161H291V114.5L348 110L353.5 155.5" stroke="black" stroke-width="7"/>
<path d="M145 102.5V151V198" stroke="black" stroke-width="7"/>
<path d="M42 25.5L36.5 172" stroke="black" stroke-width="41"/>
<path d="M34 185V154" stroke="black" stroke-width="41"/>
<path d="M18.5 190.5L52.5 165.5" stroke="black" stroke-width="41"/>
<path d="M44 22V32V12" stroke="black" stroke-width="41"/>
<path d="M408.5 26.5L395.5 208.5" stroke="black" stroke-width="41"/>
<path d="M394 215V197" stroke="black" stroke-width="41"/>
</svg>
